Coordinates
version=1
nRows=54
nColumns=12
inDegrees=yes

Units are S.I. units (second, meters, Newtons, ...)
Angles are in degrees

endheader
time	SC_y	SC_z	SC_x	AC_y	AC_z	AC_x	GH_y	GH_z	GH_yy	EL_x	PS_y
       0.0               -24.5          5.562          82.73          42.31          -14.4          12.23         -77.49           72.2          162.5          90.34          147.0
   0.04558              -24.51          5.561          82.73          42.31          -14.4          12.23         -77.49          72.19          162.4          90.35          147.0
   0.09115              -24.51           5.56          82.73          42.31          -14.4          12.23         -77.49          72.18          162.4          90.35          147.0
    0.1367              -24.52          5.558          82.73          42.31          -14.4          12.23         -77.49          72.16          162.3          90.36          147.0
    0.1823              -24.53          5.557          82.73          42.31          -14.4          12.22         -77.49          72.15          162.3          90.37          147.0
    0.2279              -24.53          5.555          82.73          42.31         -14.39          12.22          -77.5          72.13          162.2          90.38          146.9
    0.2735              -24.54          5.554          82.73          42.31         -14.39          12.22          -77.5          72.11          162.2          90.39          146.9
     0.319              -24.55          5.552          82.72          42.31         -14.39          12.22          -77.5          72.09          162.1           90.4          146.9
    0.3646              -24.55           5.55          82.72          42.31         -14.39          12.22          -77.5          72.07          162.1          90.41          146.9
    0.4102              -24.56          5.548          82.72          42.31         -14.39          12.21          -77.5          72.05          162.0          90.42          146.9
    0.4558              -24.57          5.546          82.72          42.31         -14.38          12.21          -77.5          72.03          161.9          90.43          146.9
    0.5013              -24.58          5.544          82.72          42.31         -14.38          12.21          -77.5           72.0          161.9          90.44          146.9
    0.5469              -24.59          5.541          82.72          42.31         -14.38          12.21         -77.51          71.98          161.8          90.45          146.9
    0.5925               -24.6          5.538          82.72          42.31         -14.37           12.2         -77.51          71.95          161.7          90.47          146.9
    0.6381              -24.61          5.536          82.71           42.3         -14.37           12.2         -77.51          71.92          161.6          90.49          146.9
    0.6837              -24.63          5.532          82.71           42.3         -14.37          12.19         -77.51          71.88          161.5           90.5          146.8
    0.7292              -24.64          5.529          82.71           42.3         -14.36          12.19         -77.52          71.85          161.4          90.52          146.8
    0.7748              -24.66          5.525          82.71           42.3         -14.36          12.19         -77.52          71.81          161.3          90.54          146.8
    0.8204              -24.67          5.521           82.7           42.3         -14.36          12.18         -77.52          71.76          161.1          90.56          146.8
     0.866              -24.69          5.516           82.7           42.3         -14.35          12.17         -77.53          71.71          161.0          90.59          146.8
    0.9115              -24.71          5.512           82.7           42.3         -14.34          12.17         -77.53          71.66          160.8          90.62          146.8
    0.9571              -24.73          5.506          82.69           42.3         -14.34          12.16         -77.53           71.6          160.6          90.64          146.7
     1.003              -24.76            5.5          82.69          42.29         -14.33          12.15         -77.54          71.54          160.4          90.68          146.7
     1.048              -24.79          5.493          82.69          42.29         -14.32          12.15         -77.54          71.47          160.2          90.71          146.7
     1.094              -24.82          5.486          82.68          42.29         -14.32          12.14         -77.55          71.39          160.0          90.75          146.7
     1.139              -24.85          5.478          82.68          42.29         -14.31          12.13         -77.56           71.3          159.7           90.8          146.6
     1.185              -24.89          5.468          82.67          42.28          -14.3          12.12         -77.56           71.2          159.4          90.85          146.6
     1.231              -24.93          5.458          82.66          42.28         -14.29           12.1         -77.57          71.09          159.1           90.9          146.5
     1.276              -24.98          5.446          82.65          42.28         -14.27          12.09         -77.58          70.96          158.7          90.97          146.5
     1.322              -25.03          5.433          82.65          42.27         -14.26          12.07         -77.59          70.82          158.3          91.04          146.4
     1.367              -25.09          5.418          82.64          42.27         -14.24          12.05          -77.6          70.66          157.8          91.12          146.4
     1.413              -25.17            5.4          82.62          42.26         -14.22          12.03         -77.61          70.47          157.2          91.22          146.3
     1.458              -25.25           5.38          82.61          42.26          -14.2          12.01         -77.63          70.26          156.5          91.33          146.2
     1.504              -25.34          5.356           82.6          42.25         -14.17          11.98         -77.65          70.01          155.8          91.45          146.1
      1.55              -25.46          5.329          82.58          42.24         -14.14          11.94         -77.67          69.71          154.9           91.6          146.0
     1.595              -25.59          5.296          82.56          42.23         -14.11           11.9         -77.69          69.37          153.8          91.78          145.9
     1.641              -25.74          5.258          82.53          42.22         -14.06          11.86         -77.72          68.96          152.6          91.99          145.7
     1.686              -25.93          5.212           82.5          42.21         -14.01           11.8         -77.76          68.46          151.1          92.24          145.5
     1.732              -26.16          5.156          82.46          42.19         -13.95          11.73          -77.8          67.87          149.2          92.54          145.3
     1.778              -26.44          5.088          82.42          42.17         -13.88          11.65         -77.85          67.14          147.0          92.91          145.0
     1.823              -26.78          5.003          82.36          42.15         -13.78          11.54         -77.92          66.24          144.3          93.36          144.6
     1.869              -27.21          4.898           82.3          42.11         -13.67          11.41          -78.0          65.12          140.9          93.93          144.2
     1.914              -27.75          4.766          82.21          42.07         -13.52          11.25          -78.1          63.71          136.6          94.65          143.6
      1.96              -28.43          4.598           82.1          42.02         -13.33          11.04         -78.23          61.91          131.1          95.56          142.9
     2.005              -29.31          4.383          81.96          41.96          -13.1          10.78          -78.4          59.62          124.1          96.72          142.0
     2.051              -30.44          4.106          81.78          41.88         -12.79          10.44         -78.61          56.67          115.1          98.22          140.8
     2.097              -31.87          3.753          81.55          41.77          -12.4           10.0         -78.88           52.9          103.6          100.1          139.4
     2.142              -33.68           3.31          81.26          41.64         -11.91          9.455         -79.22          48.17          89.15          102.5          137.5
     2.188              -35.88          2.769           80.9          41.47         -11.31          8.788         -79.63           42.4          71.55          105.5          135.2
     2.233              -38.44          2.142          80.49          41.29         -10.62          8.015         -80.11          35.71          51.15          108.8          132.6
     2.279               -41.2          1.463          80.05          41.08         -9.866          7.179         -80.63          28.47          29.06          112.5          129.7
     2.324              -43.96         0.7848           79.6          40.88         -9.115          6.342         -81.16          21.23          6.971          116.2          126.9
      2.37              -46.52          0.158          79.19          40.69         -8.422           5.57         -81.64          14.54         -13.43          119.6          124.2
     2.416              -48.72        -0.3828          78.84          40.53         -7.823          4.903         -82.05          8.775         -31.03          122.5          121.9
